TITLE ""
FILE "1Q_t_0801-0809.mp3" MP3
  TRACK 01 AUDIO
    TITLE "1Q_t_0801-0809_01"
    INDEX 01 00:00:00
  TRACK 02 AUDIO
    TITLE "1Q_t_0801-0809_02"
    INDEX 01 00:00:14
  TRACK 03 AUDIO
    TITLE "1Q_t_0801-0809_03"
    INDEX 01 00:01:51
  TRACK 04 AUDIO
    TITLE "1Q_t_0801-0809_04"
    INDEX 01 00:02:27
  TRACK 05 AUDIO
    TITLE "1Q_t_0801-0809_05"
    INDEX 01 00:03:30
  TRACK 06 AUDIO
    TITLE "1Q_t_0801-0809_06"
    INDEX 01 00:03:73
  TRACK 07 AUDIO
    TITLE "1Q_t_0801-0809_07"
    INDEX 01 00:05:21
  TRACK 08 AUDIO
    TITLE "1Q_t_0801-0809_08"
    INDEX 01 00:05:31
  TRACK 09 AUDIO
    TITLE "1Q_t_0801-0809_09"
    INDEX 01 00:08:29
  TRACK 10 AUDIO
    TITLE "1Q_t_0801-0809_10"
    INDEX 01 00:08:35
  TRACK 11 AUDIO
    TITLE "1Q_t_0801-0809_11"
    INDEX 01 00:15:27
  TRACK 12 AUDIO
    TITLE "1Q_t_0801-0809_12"
    INDEX 01 00:15:69
  TRACK 13 AUDIO
    TITLE "1Q_t_0801-0809_13"
    INDEX 01 00:17:28
  TRACK 14 AUDIO
    TITLE "1Q_t_0801-0809_14"
    INDEX 01 00:17:40
  TRACK 15 AUDIO
    TITLE "1Q_t_0801-0809_15"
    INDEX 01 00:20:15
  TRACK 16 AUDIO
    TITLE "1Q_t_0801-0809_16"
    INDEX 01 00:20:23
  TRACK 17 AUDIO
    TITLE "1Q_t_0801-0809_17"
    INDEX 01 00:26:37
  TRACK 18 AUDIO
    TITLE "1Q_t_0801-0809_18"
    INDEX 01 00:27:07
  TRACK 19 AUDIO
    TITLE "1Q_t_0801-0809_19"
    INDEX 01 00:28:16
  TRACK 20 AUDIO
    TITLE "1Q_t_0801-0809_20"
    INDEX 01 00:28:26
  TRACK 21 AUDIO
    TITLE "1Q_t_0801-0809_21"
    INDEX 01 00:30:27
  TRACK 22 AUDIO
    TITLE "1Q_t_0801-0809_22"
    INDEX 01 00:30:35
  TRACK 23 AUDIO
    TITLE "1Q_t_0801-0809_23"
    INDEX 01 00:36:28
  TRACK 24 AUDIO
    TITLE "1Q_t_0801-0809_24"
    INDEX 01 00:36:75
  TRACK 25 AUDIO
    TITLE "1Q_t_0801-0809_25"
    INDEX 01 00:38:13
  TRACK 26 AUDIO
    TITLE "1Q_t_0801-0809_26"
    INDEX 01 00:38:21
  TRACK 27 AUDIO
    TITLE "1Q_t_0801-0809_27"
    INDEX 01 00:42:20
  TRACK 28 AUDIO
    TITLE "1Q_t_0801-0809_28"
    INDEX 01 00:42:26
  TRACK 29 AUDIO
    TITLE "1Q_t_0801-0809_29"
    INDEX 01 00:48:25
  TRACK 30 AUDIO
    TITLE "1Q_t_0801-0809_30"
    INDEX 01 00:48:68
  TRACK 31 AUDIO
    TITLE "1Q_t_0801-0809_31"
    INDEX 01 00:50:06
  TRACK 32 AUDIO
    TITLE "1Q_t_0801-0809_32"
    INDEX 01 00:50:14
  TRACK 33 AUDIO
    TITLE "1Q_t_0801-0809_33"
    INDEX 01 00:52:09
  TRACK 34 AUDIO
    TITLE "1Q_t_0801-0809_34"
    INDEX 01 00:52:17
  TRACK 35 AUDIO
    TITLE "1Q_t_0801-0809_35"
    INDEX 01 00:58:21
  TRACK 36 AUDIO
    TITLE "1Q_t_0801-0809_36"
    INDEX 01 00:58:67
  TRACK 37 AUDIO
    TITLE "1Q_t_0801-0809_37"
    INDEX 01 00:59:66
  TRACK 38 AUDIO
    TITLE "1Q_t_0801-0809_38"
    INDEX 01 01:00:01
  TRACK 39 AUDIO
    TITLE "1Q_t_0801-0809_39"
    INDEX 01 01:05:33
  TRACK 40 AUDIO
    TITLE "1Q_t_0801-0809_40"
    INDEX 01 01:05:41
  TRACK 41 AUDIO
    TITLE "1Q_t_0801-0809_41"
    INDEX 01 01:12:04
  TRACK 42 AUDIO
    TITLE "1Q_t_0801-0809_42"
    INDEX 01 01:12:49
  TRACK 43 AUDIO
    TITLE "1Q_t_0801-0809_43"
    INDEX 01 01:14:09
  TRACK 44 AUDIO
    TITLE "1Q_t_0801-0809_44"
    INDEX 01 01:14:17
  TRACK 45 AUDIO
    TITLE "1Q_t_0801-0809_45"
    INDEX 01 01:17:09
  TRACK 46 AUDIO
    TITLE "1Q_t_0801-0809_46"
    INDEX 01 01:17:15
  TRACK 47 AUDIO
    TITLE "1Q_t_0801-0809_47"
    INDEX 01 01:22:40
  TRACK 48 AUDIO
    TITLE "1Q_t_0801-0809_48"
    INDEX 01 01:23:12
  TRACK 49 AUDIO
    TITLE "1Q_t_0801-0809_49"
    INDEX 01 01:24:09
  TRACK 50 AUDIO
    TITLE "1Q_t_0801-0809_50"
    INDEX 01 01:24:19
  TRACK 51 AUDIO
    TITLE "1Q_t_0801-0809_51"
    INDEX 01 01:26:69
  TRACK 52 AUDIO
    TITLE "1Q_t_0801-0809_52"
    INDEX 01 01:26:75
  TRACK 53 AUDIO
    TITLE "1Q_t_0801-0809_53"
    INDEX 01 01:33:06
  TRACK 54 AUDIO
    TITLE "1Q_t_0801-0809_54"
    INDEX 01 01:33:57
  TRACK 55 AUDIO
    TITLE "1Q_t_0801-0809_55"
    INDEX 01 01:34:58
  TRACK 56 AUDIO
    TITLE "1Q_t_0801-0809_56"
    INDEX 01 01:34:68
  TRACK 57 AUDIO
    TITLE "1Q_t_0801-0809_57"
    INDEX 01 01:36:53
  TRACK 58 AUDIO
    TITLE "1Q_t_0801-0809_58"
    INDEX 01 01:36:61
  TRACK 59 AUDIO
    TITLE "1Q_t_0801-0809_59"
    INDEX 01 01:43:63
